<svg width="80px" version="1.1" fill="#fff" id="Layer_1" xmlns="http://www.w3.org/2000/svg" xmlns:xlink="http://www.w3.org/1999/xlink" x="0px" y="0px" viewBox="0 0 223.95 300.68" style="enable-background:new 0 0 223.95 300.68;" xml:space="preserve">
<g>
<g>
<path d="M115.94,96.18c6.7,0,11.23-4.94,12.36-11.33V79.7c-1.13-6.39-5.77-11.53-12.36-11.53c-8.03,0-13.07,6.49-13.07,14.21
			C102.87,89.9,107.8,96.18,115.94,96.18z"></path>
    <path d="M177.76,135.42c-7.93,0-13.9,6.7-13.9,15.45c0,8.75,5.77,15.03,13.9,15.03c7.62,0,13.28-5.25,14.1-13.18v-3.71
			C191.04,140.88,185.48,135.42,177.76,135.42z"></path>
    <path d="M69.34,0v8.91H0v218.11h69.34v8.91h154.61V0H69.34z M115.94,53.13c4.43,0,8.75,1.03,12.36,2.78V35.84h15.24v74.76H128.3
			v-2.16c-3.61,1.85-7.82,2.88-12.36,2.88c-17.09,0-28.12-12.67-28.12-28.94C87.82,66.22,98.85,53.13,115.94,53.13z M16.6,210.42
			V25.51h52.74v184.91H16.6z M129.12,179.49l-0.1-2.67c-3.92,2.16-8.24,3.4-13.18,3.4c-16.99,0-28.01-12.67-28.01-28.94v-29.76
			h15.14v29.76c0,7.41,5.15,13.9,12.87,13.9c6.59,0,11.12-6.18,12.67-12.57v-31.1h15.03l0.3,57.98H129.12z M148.72,52.82h15.14
			v29.76c0,7.41,5.15,13.9,12.87,13.9c6.59,0,11.12-6.18,12.67-12.57v-31.1h15.03l0.3,57.98h-14.72l-0.1-2.67
			c-3.92,2.16-8.24,3.4-13.18,3.4c-16.99,0-28.01-12.67-28.01-28.94V52.82z M205.47,172.29c0,16.06-11.64,27.81-27.7,27.81
			c-12.46,0-22.56-7.93-28.22-22.45h14.41c2.78,5.87,7.52,9.06,13.8,9.06c7.41,0,13.49-4.74,14.1-10.61
			c-4.22,2.36-9.06,3.5-14.1,3.5c-16.07,0-27.5-12.05-27.5-28.73c0-16.68,11.64-29.04,27.5-29.04c5.15,0,9.99,1.24,14.1,3.61v-3.92
			h13.6V172.29z"></path>
</g>
    <g>
<path d="M1.64,271.13H0v-14.2h1.64V271.13z"></path>
        <path d="M12.88,271.13h-1.64v-14.2h1.44l7.92,11.09l-0.02-11.09h1.64v14.2h-1.45l-7.92-11.09L12.88,271.13z"></path>
        <path d="M38.38,271.13h-1.64v-12.59h-4.92v-1.61h11.48v1.61h-4.91V271.13z"></path>
        <path d="M63.81,271.13H52.9v-14.2h10.91v1.61h-9.25v4.69h7.01v1.64h-7.01v4.65h9.25V271.13z"></path>
        <path d="M84.31,271.13H73.4v-14.2h1.66v12.57h9.25V271.13z"></path>
        <path d="M95.55,271.13h-1.64v-14.2h1.64V271.13z"></path>
        <path d="M112.59,264.87v-1.64h6.4v7.9h-1.61v-1.76c-1.35,1.35-3.09,1.95-5.1,1.95c-4.17,0-7.14-3.03-7.14-7.28
			c0-4.17,2.9-7.28,7.14-7.28c2.99,0,5.51,1.78,6.82,4.63h-1.82c-0.97-1.86-2.8-3.03-5.01-3.03c-3.23,0-5.52,2.38-5.52,5.67
			c0,3.19,2.22,5.67,5.52,5.67c2.36,0,3.95-1.17,5.1-3.13v-1.72H112.59z"></path>
        <path d="M150.85,271.13h-1.64v-14.2h1.44l7.92,11.09l-0.02-11.09h1.64v14.2h-1.45l-7.92-11.09L150.85,271.13z"></path>
        <path d="M169.79,264.05c0-4.22,3.01-7.28,7.14-7.28c3.03,0,5.53,1.82,6.82,4.63h-1.82c-0.97-1.86-2.8-3.03-5.01-3.03
			c-3.31,0-5.52,2.48-5.52,5.67c0,3.27,2.29,5.67,5.52,5.67c2.47,0,4.43-1.47,5.26-3.67l1.72-0.06c-1.01,3.23-3.63,5.34-6.98,5.34
			C172.8,271.32,169.79,268.27,169.79,264.05z"></path>
        <path d="M194.72,271.13h-1.64v-14.2h1.64V271.13z"></path>
        <path d="M205.57,271.13h-1.89l7.23-14.2l7.19,14.2h-1.8l-2.04-4.01h-6.69L205.57,271.13z M210.92,260.53l-2.58,5.11h5.14
			L210.92,260.53z"></path>
        <path d="M0,293.4c0-4.22,3.01-7.28,7.14-7.28c3.03,0,5.53,1.82,6.82,4.63h-1.82c-0.97-1.86-2.8-3.03-5.01-3.03
			c-3.31,0-5.52,2.48-5.52,5.67c0,3.27,2.29,5.67,5.52,5.67c2.47,0,4.43-1.47,5.26-3.67l1.72-0.06c-1.01,3.23-3.63,5.34-6.98,5.34
			C3.01,300.68,0,297.62,0,293.4z"></path>
        <path d="M24.93,300.48h-1.64v-14.2h5.7c2.67,0,5.06,0.84,5.06,3.99c0,2.52-1.44,3.54-3.52,3.86l4.17,6.35h-2l-4.17-6.26h-3.61
			V300.48z M24.93,287.89v4.69h4.06c1.08,0,2.05-0.23,2.65-0.54c0.49-0.41,0.8-1.04,0.8-1.76c0-0.76-0.32-1.37-0.8-1.78
			c-0.59-0.35-1.57-0.61-2.65-0.61H24.93z"></path>
        <path d="M45.95,300.48h-1.64v-14.2h1.64V300.48z"></path>
        <path d="M56.8,300.48h-1.89l7.23-14.2l7.19,14.2h-1.8l-2.04-4.01h-6.69L56.8,300.48z M62.15,289.88l-2.58,5.11h5.14L62.15,289.88z
			"></path>
        <path d="M81.74,300.48H80.1v-12.59h-4.92v-1.61h11.48v1.61h-4.91V300.48z"></path>
        <path d="M97.9,300.48h-1.64v-14.2h1.64V300.48z"></path>
        <path d="M121.92,286.28l-7.19,14.2l-7.23-14.2h1.85l5.38,10.58l5.38-10.58H121.92z"></path>
        <path d="M128.75,300.48h-1.89l7.23-14.2l7.19,14.2h-1.8l-2.04-4.01h-6.69L128.75,300.48z M134.09,289.88l-2.58,5.11h5.14
			L134.09,289.88z"></path>
        <path d="M139.62,271.13H128.7v-14.2h10.91v1.61h-9.25v4.69h7.01v1.64h-7.01v4.65h9.25V271.13z M132.5,254.76h-2l3.14-4.09h1.04
			l3.12,4.09h-2.03l-1.64-2.05L132.5,254.76z"></path>
</g>
</g>
</svg>